<?xml version="1.0" encoding="UTF-8" standalone="no"?>
<svg
   width="1285.678"
   height="301.07599"
   viewBox="0 0 1285.678 301.07599"
   fill="none"
   version="1.1"
   id="svg14"
   xmlns="http://www.w3.org/2000/svg"
   xmlns:svg="http://www.w3.org/2000/svg">
  <defs
     id="defs18" />
  <path
     d="m 584.561,24.253 -55.89,212.471 c -17.217,2.912 -36.389,3.554 -57.516,0 L 432.167,94.113 392.524,236.724 c -17.546,3.238 -36.063,3.554 -56.861,0 L 279.446,24.253 c 18.2,-3.879 35.745,-3.553 52.636,0 l 36.39,149.729 35.09,-149.729 c 17.545,-3.553 38.344,-3.879 56.534,0 l 42.242,150.38 29.566,-150.38 c 18.2,-3.879 36.062,-3.553 52.636,0 z"
     fill="#2c2a29"
     id="path2" />
  <path
     d="m 581.201,155.225 c 0,-51.745 35.091,-84.084 84.797,-84.084 49.71,0 84.8,33.632 84.8,84.084 0,50.453 -33.46,84.41 -84.8,84.41 -51.333,0 -84.797,-33.305 -84.797,-84.41 z m 120.547,0 c 0,-26.514 -12.99,-42.042 -35.75,-42.042 -22.749,0 -35.742,15.528 -35.742,42.042 0,26.515 13.32,42.368 35.742,42.368 22.43,0 35.75,-14.55 35.75,-42.368 z"
     fill="#2c2a29"
     id="path4" />
  <path
     d="m 1020.798,121.27 v 115.129 h -48.41 v -97.982 c 0,-17.137 -11.05,-25.873 -30.54,-25.873 -9.1,0 -17.87,1.945 -25.03,4.846 2.6,7.118 3.9,14.876 3.9,23.287 v 95.722 h -48.41 v -97.982 c 0,-17.137 -11.05,-25.873 -30.54,-25.873 -7.46,0 -14.62,0.967 -20.8,2.586 v 121.269 h -49.06 l 0.33,-143.904 c 19.5,-13.583 50.03,-21.016 75.7,-21.016 20.47,0 38.02,6.792 50.69,17.789 16.58,-10.671 39.65,-17.789 59.14,-17.789 35.41,0 63.03,18.756 63.03,49.801 z"
     fill="#2c2a29"
     id="path6" />
  <path
     d="m 1214.518,160.725 c 0,43.977 -20.79,78.912 -69.86,78.912 -14.95,0 -31.19,-4.847 -44.84,-14.235 v 59.83 c -11.05,8.726 -36.06,15.844 -49.07,15.844 V 84.084 c 15.92,-7.432 41.92,-12.615 68.89,-12.615 58.81,0 94.87,32.012 94.87,89.256 z m -48.74,-5.824 c 0,-23.928 -13,-44.628 -43.22,-44.628 -6.82,0 -14.62,0.651 -22.74,1.945 v 84.41 c 6.5,1.293 14.3,2.26 24.04,2.26 26,0 41.92,-11.964 41.92,-43.977 z"
     fill="#2c2a29"
     id="path8" />
  <path
     d="m 1235.308,24.895 c 0,-13.583 11.38,-24.895 25.03,-24.895 13.64,0 25.34,10.997 25.34,24.895 0,13.898 -11.38,24.906 -25.34,24.906 -13.97,0 -25.03,-10.997 -25.03,-24.906 z m 0.66,51.104 c 6.82,-2.912 15.27,-4.531 24.69,-4.531 9.43,0 17.55,1.619 24.37,4.531 v 160.4 h -49.06 z"
     fill="#2c2a29"
     id="path10" />
  <path
     d="m 219.712,26.955 v 59.031 c 0,3.543 -1.732,6.876 -4.637,8.926 l -56.629,39.918 c 0,0 -0.053,0.032 -0.074,0.053 -2.619,1.882 -4.267,4.805 -4.521,7.98 -0.031,0.304 -0.042,0.609 -0.042,0.914 v 90.918 c 0,3.017 -2.461,5.467 -5.493,5.467 h -4.172 c -1.954,0 -3.761,-1.041 -4.743,-2.713 L 81.462,138.584 c 0,0 -0.021,-0.042 -0.042,-0.053 -1.267,-2.081 -4.51,-1.188 -4.51,1.272 v 94.892 c 0,3.017 -2.461,5.467 -5.493,5.467 h -4.172 c -1.955,0 -3.761,-1.041 -4.743,-2.713 L 2.218,134.599 C 0.76,132.129 0,129.311 0,126.441 V 26.955 c 0,-3.028 2.461,-5.467 5.493,-5.467 h 4.172 c 1.944,0 3.75,1.03 4.743,2.702 l 57.938,98.866 c 1.257,2.144 4.553,1.261 4.553,-1.22 V 26.955 c 0,-3.028 2.461,-5.467 5.493,-5.467 h 4.172 c 1.944,0 3.75,1.03 4.743,2.702 l 57.939,98.866 c 1.257,2.144 4.552,1.261 4.552,-1.22 V 69.954 c 0,-5.257 2.557,-10.187 6.866,-13.226 l 48.57,-34.241 c 0.929,-0.652 2.038,-0.999 3.179,-0.999 h 1.806 c 3.032,0 5.493,2.439 5.493,5.467 z"
     fill="#2c2a29"
     id="path12" />
</svg>
