<?xml version="1.0" encoding="UTF-8" standalone="no"?>
<!-- Created with Inkscape (http://www.inkscape.org/) -->

<svg
   version="1.1"
   id="svg2"
   width="107.05493"
   height="98.642944"
   viewBox="0 0 107.05493 98.642944"
   xmlns="http://www.w3.org/2000/svg"
   xmlns:svg="http://www.w3.org/2000/svg">
  <defs
     id="defs6">
    <clipPath
       clipPathUnits="userSpaceOnUse"
       id="clipPath590">
      <path
         d="M 0,1080 H 1920 V 0 H 0 Z"
         id="path588" />
    </clipPath>
  </defs>
  <g
     id="g10"
     transform="matrix(1.3333333,0,0,-1.3333333,-1861.2499,308.16785)">
    <g
       id="g584">
      <g
         id="g586"
         clip-path="url(#clipPath590)">
        <g
           id="g592"
           transform="translate(1436.4275,201.0246)">
          <path
             d="m 0,0 c 5.598,0 10.135,-4.538 10.135,-10.135 0,-5.598 -4.537,-10.136 -10.135,-10.136 -5.598,0 -10.135,4.538 -10.135,10.136 C -10.135,-4.538 -5.598,0 0,0"
             style="fill:#4a90e2;fill-opacity:1;fill-rule:nonzero;stroke:none"
             id="path594" />
        </g>
        <g
           id="g596"
           transform="translate(1465.7437,219.6725)">
          <path
             d="m 0,0 c 2.784,0 5.041,-2.257 5.041,-5.041 0,-2.784 -2.257,-5.04 -5.041,-5.04 -2.784,0 -5.041,2.256 -5.041,5.04 C -5.041,-2.257 -2.784,0 0,0"
             style="fill:#4a90e2;fill-opacity:1;fill-rule:nonzero;stroke:none"
             id="path598" />
        </g>
      </g>
    </g>
  </g>
  <g
     id="g678"
     transform="matrix(1.3333333,0,0,-1.3333333,718.75012,-615.55348)">
    <path
       style="fill:#ffffff;stroke-width:0.344978"
       d="m 1886.4437,1230.3923 c -2.8706,-0.7507 -12.249,-9.6976 -15.9231,-15.1904 -10.9724,-16.404 -12.2884,-36.6999 -3.5028,-54.0214 2.7996,-5.5198 5.4239,-9.0843 10.1535,-13.7912 7.765,-7.7277 16.1922,-12.3228 27.0207,-14.7338 4.5927,-1.0225 15.9491,-1.1116 20.4429,-0.1604 6.5386,1.384 14.313,4.3232 15.7828,5.9668 0.9621,1.0759 0.9945,2.5289 0.082,3.6888 -0.9919,1.2611 -2.4008,1.4755 -4.077,0.6203 -9.1311,-4.6583 -20.2984,-6.1727 -30.7751,-4.1734 -18.5584,3.5414 -33.3593,18.1468 -37.4108,36.9166 -0.3072,1.423 -0.6432,4.9935 -0.7468,7.9345 -0.3067,8.7116 1.0138,15.0804 4.6882,22.61 3.341,6.8464 8.5163,13.0664 14.5873,17.532 2.7943,2.0553 3.3716,2.7553 3.3716,4.0883 0,1.7129 -1.9738,3.163 -3.6934,2.7133 z"
       id="path887"
       transform="matrix(0.75000002,0,0,-0.75000002,-1935,387.20901)" />
    <path
       style="fill:#ffffff;stroke-width:0.344978"
       d="m 1921.9443,1218.6269 c -0.9941,-0.9261 -1.277,-2.1899 -0.7664,-3.4227 0.4351,-1.0505 1.1329,-1.4558 4.7979,-2.7866 6.4379,-2.3378 12.9515,-8.8281 15.6668,-15.6106 2.3841,-5.9554 2.6252,-13.5945 0.6175,-19.5679 -2.5227,-7.5061 -7.3553,-13.0826 -14.3479,-16.5564 -4.6536,-2.3119 -7.2097,-2.8934 -12.7642,-2.9041 -4.8124,-0.01 -7.6361,0.5592 -11.6946,2.3541 -7.7574,3.4307 -13.8814,10.8823 -15.9594,19.419 -0.7031,2.8884 -0.7839,9.4557 -0.1519,12.3489 1.5866,7.2637 5.6398,13.2995 11.8772,17.6867 3.5174,2.4741 4.0363,3.8544 2.2023,5.8581 -1.1575,1.2647 -2.7019,1.0307 -5.5073,-0.8343 -4.8751,-3.241 -9.752,-9.0347 -12.15,-14.4343 -3.3142,-7.4626 -3.8697,-16.5339 -1.4889,-24.3177 3.9893,-13.043 16.3652,-23.0255 29.8588,-24.0844 10.7039,-0.84 20.1081,2.6062 27.5113,10.0818 8.6824,8.7672 12.0011,20.8711 8.9838,32.7656 -2.7849,10.9784 -11.4031,20.3352 -22.1293,24.0255 -2.5051,0.8619 -3.6137,0.8569 -4.5557,-0.021 z"
       id="path889"
       transform="matrix(0.75000002,0,0,-0.75000002,-1935,387.20901)" />
    <path
       style="fill:#ffffff;stroke-width:0.344978"
       d="m 1941.2821,1230.1813 c -1.1699,-0.4919 -1.9899,-2.1689 -1.6747,-3.4249 0.1408,-0.5608 1.3468,-1.7087 3.4443,-3.2783 9.9881,-7.4745 16.639,-18.3913 18.6793,-30.66 0.4664,-2.8046 0.5527,-4.7962 0.4038,-9.3145 -0.2169,-6.5853 -0.8162,-9.6902 -2.9773,-15.4249 l -1.4036,-3.7248 0.6032,-1.2314 c 1.0438,-2.1309 3.5255,-2.3125 4.9757,-0.3641 1.0244,1.3762 3.2859,8.1978 4.1353,12.4731 1.11,5.5878 1.1162,14.3611 0.014,19.8525 -2.6618,13.2604 -9.9887,24.9909 -20.5687,32.9313 -3.3276,2.4975 -4.1189,2.8019 -5.6311,2.166 z"
       id="path891"
       transform="matrix(0.75000002,0,0,-0.75000002,-1935,387.20901)" />
  </g>
</svg>
