<?xml version="1.0" encoding="UTF-8" standalone="no"?>
<!-- Created with Inkscape (http://www.inkscape.org/) -->

<svg
   version="1.1"
   id="svg2"
   width="311.66"
   height="45.833496"
   viewBox="0 0 311.66 45.833496"
   xmlns="http://www.w3.org/2000/svg"
   xmlns:svg="http://www.w3.org/2000/svg">
  <defs
     id="defs6">
    <clipPath
       clipPathUnits="userSpaceOnUse"
       id="clipPath256">
      <path
         d="M 0,1080 H 1920 V 0 H 0 Z"
         id="path254" />
    </clipPath>
  </defs>
  <g
     id="g10"
     transform="matrix(1.3333333,0,0,-1.3333333,-263.06851,659.91559)">
    <g
       id="g250">
      <g
         id="g252"
         clip-path="url(#clipPath256)">
        <g
           id="g258"
           transform="translate(298.7184,460.8296)">
          <path
             d="m 0,0 c -2.742,0 -4.873,0.745 -6.392,2.235 -1.49,1.52 -2.236,3.651 -2.236,6.392 v 10.729 h -4.201 v 5.23 h 0.447 c 1.192,0 2.115,0.313 2.771,0.939 0.656,0.625 0.983,1.534 0.983,2.726 v 1.878 h 5.856 v -5.543 h 5.588 v -5.23 H -2.772 V 8.94 c 0,-0.804 0.134,-1.49 0.403,-2.056 0.298,-0.566 0.745,-0.998 1.341,-1.296 0.626,-0.298 1.415,-0.447 2.369,-0.447 0.209,0 0.447,0.015 0.715,0.044 0.298,0.03 0.581,0.06 0.849,0.09 V 0.268 C 2.488,0.209 2.011,0.149 1.475,0.089 0.939,0.03 0.447,0 0,0 m -37.584,0.268 v 24.318 h 5.498 v -4.783 l -0.447,0.849 c 0.567,1.46 1.49,2.563 2.772,3.308 1.311,0.775 2.831,1.162 4.559,1.162 1.788,0 3.368,-0.387 4.739,-1.162 1.4,-0.775 2.488,-1.862 3.263,-3.263 0.775,-1.371 1.162,-2.965 1.162,-4.783 V 0.268 h -5.856 v 14.26 c 0,1.073 -0.208,1.997 -0.626,2.771 -0.417,0.775 -0.998,1.371 -1.743,1.789 -0.715,0.447 -1.564,0.67 -2.548,0.67 -0.954,0 -1.803,-0.223 -2.548,-0.67 -0.745,-0.418 -1.326,-1.014 -1.743,-1.789 -0.417,-0.774 -0.626,-1.698 -0.626,-2.771 V 0.268 Z m -17.27,4.828 c 1.311,0 2.458,0.313 3.442,0.939 1.013,0.626 1.803,1.49 2.369,2.592 0.596,1.133 0.894,2.399 0.894,3.8 0,1.43 -0.298,2.682 -0.894,3.755 -0.566,1.103 -1.356,1.967 -2.369,2.593 -0.984,0.655 -2.131,0.983 -3.442,0.983 -1.341,0 -2.518,-0.328 -3.532,-0.983 -1.013,-0.626 -1.817,-1.49 -2.413,-2.593 -0.567,-1.073 -0.85,-2.325 -0.85,-3.755 0,-1.401 0.283,-2.667 0.85,-3.8 0.596,-1.102 1.4,-1.966 2.413,-2.592 1.014,-0.626 2.191,-0.939 3.532,-0.939 m 0,-5.364 c -2.384,0 -4.56,0.551 -6.527,1.654 -1.937,1.102 -3.486,2.607 -4.649,4.515 -1.132,1.907 -1.698,4.082 -1.698,6.526 0,2.444 0.566,4.619 1.698,6.526 1.163,1.908 2.712,3.413 4.649,4.515 1.937,1.103 4.113,1.654 6.527,1.654 2.384,0 4.544,-0.551 6.482,-1.654 1.937,-1.102 3.471,-2.607 4.604,-4.515 1.162,-1.877 1.743,-4.052 1.743,-6.526 0,-2.444 -0.581,-4.619 -1.743,-6.526 -1.162,-1.908 -2.712,-3.413 -4.649,-4.515 -1.937,-1.103 -4.083,-1.654 -6.437,-1.654 m -29.934,0 c -2.385,0 -4.59,0.432 -6.616,1.296 -1.997,0.864 -3.755,2.071 -5.275,3.621 -1.49,1.55 -2.652,3.367 -3.487,5.454 -0.834,2.086 -1.251,4.365 -1.251,6.839 0,2.473 0.402,4.753 1.206,6.839 0.835,2.116 1.997,3.934 3.487,5.454 1.52,1.549 3.293,2.742 5.32,3.576 2.026,0.864 4.231,1.296 6.616,1.296 2.384,0 4.514,-0.402 6.392,-1.207 1.907,-0.804 3.516,-1.877 4.828,-3.218 1.311,-1.311 2.25,-2.757 2.816,-4.336 l -5.454,-2.548 c -0.626,1.669 -1.684,3.039 -3.174,4.112 -1.49,1.103 -3.293,1.654 -5.408,1.654 -2.087,0 -3.934,-0.491 -5.543,-1.475 -1.58,-0.983 -2.817,-2.339 -3.711,-4.068 -0.864,-1.728 -1.296,-3.755 -1.296,-6.079 0,-2.325 0.432,-4.366 1.296,-6.124 0.894,-1.729 2.131,-3.085 3.711,-4.068 1.609,-0.984 3.456,-1.475 5.543,-1.475 2.115,0 3.918,0.536 5.408,1.609 1.49,1.103 2.548,2.488 3.174,4.157 l 5.454,-2.548 c -0.566,-1.579 -1.505,-3.039 -2.816,-4.38 -1.312,-1.312 -2.921,-2.37 -4.828,-3.174 -1.878,-0.805 -4.008,-1.207 -6.392,-1.207"
             style="fill:#0f172a;fill-opacity:1;fill-rule:nonzero;stroke:none"
             id="path260" />
        </g>
        <g
           id="g262"
           transform="translate(417.5464,461.0977)">
          <path
             d="m 0,0 v 24.318 h 5.498 v -5.409 l -0.447,0.804 c 0.566,1.818 1.445,3.085 2.637,3.8 1.222,0.715 2.683,1.073 4.381,1.073 H 13.5 v -5.185 h -2.101 c -1.669,0 -3.01,-0.522 -4.023,-1.565 -1.014,-1.013 -1.52,-2.444 -1.52,-4.291 L 5.856,0 Z m -18.555,-0.536 c -1.699,0 -3.174,0.283 -4.425,0.849 -1.252,0.566 -2.22,1.371 -2.906,2.414 -0.685,1.073 -1.028,2.309 -1.028,3.71 0,1.341 0.298,2.533 0.894,3.576 0.596,1.073 1.52,1.967 2.771,2.682 1.252,0.715 2.832,1.222 4.739,1.52 l 7.957,1.297 v -4.471 l -6.84,-1.162 c -1.162,-0.208 -2.026,-0.581 -2.592,-1.117 -0.567,-0.537 -0.85,-1.237 -0.85,-2.101 0,-0.835 0.313,-1.505 0.939,-2.012 0.656,-0.477 1.46,-0.715 2.414,-0.715 1.222,0 2.295,0.253 3.218,0.76 0.954,0.536 1.684,1.266 2.191,2.19 0.536,0.924 0.804,1.937 0.804,3.04 v 6.258 c 0,1.043 -0.417,1.907 -1.251,2.593 -0.805,0.715 -1.878,1.073 -3.219,1.073 -1.251,0 -2.369,-0.343 -3.352,-1.029 -0.954,-0.655 -1.654,-1.534 -2.101,-2.637 l -4.783,2.325 c 0.477,1.281 1.222,2.384 2.235,3.307 1.043,0.954 2.265,1.699 3.665,2.235 1.401,0.537 2.921,0.805 4.56,0.805 1.997,0 3.755,-0.372 5.275,-1.117 1.519,-0.716 2.697,-1.729 3.531,-3.04 0.864,-1.282 1.296,-2.787 1.296,-4.515 V 0 h -5.543 v 4.157 l 1.252,0.09 C -10.33,3.204 -11.075,2.324 -11.939,1.609 -12.803,0.924 -13.787,0.388 -14.889,0 c -1.103,-0.358 -2.325,-0.536 -3.666,-0.536 m -25.474,5.364 c 1.341,0 2.518,0.313 3.531,0.939 1.014,0.625 1.803,1.49 2.369,2.592 0.596,1.103 0.894,2.369 0.894,3.8 0,1.401 -0.298,2.652 -0.894,3.755 -0.566,1.132 -1.355,2.011 -2.369,2.637 -1.013,0.626 -2.19,0.939 -3.531,0.939 -1.311,0 -2.489,-0.328 -3.532,-0.983 -1.043,-0.626 -1.862,-1.491 -2.458,-2.593 -0.566,-1.073 -0.849,-2.325 -0.849,-3.755 0,-1.431 0.283,-2.697 0.849,-3.8 0.596,-1.102 1.415,-1.967 2.458,-2.592 1.043,-0.626 2.221,-0.939 3.532,-0.939 m -0.626,-5.364 c -2.354,0 -4.455,0.551 -6.303,1.654 -1.848,1.132 -3.308,2.667 -4.381,4.604 -1.072,1.937 -1.609,4.083 -1.609,6.437 0,2.384 0.537,4.53 1.609,6.437 1.073,1.907 2.533,3.427 4.381,4.56 1.878,1.132 3.964,1.698 6.258,1.698 1.848,0 3.487,-0.372 4.918,-1.117 1.46,-0.716 2.607,-1.729 3.442,-3.04 l -0.895,-1.207 v 14.349 h 5.856 V 0 h -5.543 v 4.694 l 0.626,-1.163 c -0.834,-1.311 -1.996,-2.324 -3.486,-3.039 -1.491,-0.686 -3.115,-1.028 -4.873,-1.028 m -29.864,0 c -1.699,0 -3.174,0.283 -4.426,0.849 -1.251,0.566 -2.22,1.371 -2.905,2.414 -0.686,1.073 -1.028,2.309 -1.028,3.71 0,1.341 0.298,2.533 0.894,3.576 0.596,1.073 1.52,1.967 2.771,2.682 1.252,0.715 2.831,1.222 4.739,1.52 l 7.956,1.297 v -4.471 l -6.839,-1.162 c -1.162,-0.208 -2.026,-0.581 -2.593,-1.117 -0.566,-0.537 -0.849,-1.237 -0.849,-2.101 0,-0.835 0.313,-1.505 0.939,-2.012 0.655,-0.477 1.46,-0.715 2.414,-0.715 1.222,0 2.294,0.253 3.218,0.76 0.954,0.536 1.684,1.266 2.191,2.19 0.536,0.924 0.804,1.937 0.804,3.04 v 6.258 c 0,1.043 -0.417,1.907 -1.251,2.593 -0.805,0.715 -1.878,1.073 -3.219,1.073 -1.252,0 -2.369,-0.343 -3.353,-1.029 -0.953,-0.655 -1.653,-1.534 -2.1,-2.637 l -4.784,2.325 c 0.477,1.281 1.222,2.384 2.236,3.307 1.043,0.954 2.264,1.699 3.665,2.235 1.401,0.537 2.921,0.805 4.56,0.805 1.996,0 3.755,-0.372 5.274,-1.117 1.52,-0.716 2.697,-1.729 3.532,-3.04 0.864,-1.282 1.296,-2.787 1.296,-4.515 V 0 h -5.543 v 4.157 l 1.252,0.09 C -66.294,3.204 -67.039,2.324 -67.903,1.609 -68.768,0.924 -69.751,0.388 -70.854,0 c -1.102,-0.358 -2.324,-0.536 -3.665,-0.536 m -30.358,18.193 h 6.392 c 1.103,0 2.056,0.209 2.861,0.626 0.804,0.447 1.43,1.058 1.877,1.833 0.447,0.775 0.671,1.669 0.671,2.682 0,1.043 -0.224,1.937 -0.671,2.682 -0.447,0.775 -1.073,1.371 -1.877,1.788 -0.805,0.447 -1.758,0.671 -2.861,0.671 h -6.392 z M -110.957,0 v 33.303 h 12.383 c 2.264,0 4.261,-0.418 5.99,-1.252 1.758,-0.805 3.129,-1.997 4.112,-3.576 0.984,-1.55 1.475,-3.442 1.475,-5.677 0,-2.295 -0.551,-4.247 -1.654,-5.856 -1.073,-1.609 -2.533,-2.801 -4.38,-3.576 L -85.388,0 h -6.884 l -8.18,14.617 3.934,-2.324 h -8.359 V 0 Z"
             style="fill:#4a90e2;fill-opacity:1;fill-rule:nonzero;stroke:none"
             id="path264" />
        </g>
      </g>
    </g>
  </g>
</svg>
