<?xml version="1.0" encoding="UTF-8" standalone="no"?>
<!-- Created with Inkscape (http://www.inkscape.org/) -->

<svg
   version="1.1"
   id="svg2"
   width="311.39218"
   height="45.833313"
   viewBox="0 0 311.39218 45.833313"
   xmlns="http://www.w3.org/2000/svg"
   xmlns:svg="http://www.w3.org/2000/svg">
  <defs
     id="defs6">
    <clipPath
       clipPathUnits="userSpaceOnUse"
       id="clipPath256">
      <path
         d="M 0,1080 H 1920 V 0 H 0 Z"
         id="path254" />
    </clipPath>
  </defs>
  <g
     id="g10"
     transform="matrix(1.3333333,0,0,-1.3333333,-263.33633,659.91559)">
    <g
       id="g250">
      <g
         id="g252"
         clip-path="url(#clipPath256)">
        <g
           id="g262"
           transform="translate(417.5464,461.0977)">
          <path
             d="m 0,0 v 24.318 h 5.498 v -5.409 l -0.447,0.804 c 0.566,1.818 1.445,3.085 2.637,3.8 1.222,0.715 2.683,1.073 4.381,1.073 H 13.5 v -5.185 h -2.101 c -1.669,0 -3.01,-0.522 -4.023,-1.565 -1.014,-1.013 -1.52,-2.444 -1.52,-4.291 L 5.856,0 Z m -18.555,-0.536 c -1.699,0 -3.174,0.283 -4.425,0.849 -1.252,0.566 -2.22,1.371 -2.906,2.414 -0.685,1.073 -1.028,2.309 -1.028,3.71 0,1.341 0.298,2.533 0.894,3.576 0.596,1.073 1.52,1.967 2.771,2.682 1.252,0.715 2.832,1.222 4.739,1.52 l 7.957,1.297 v -4.471 l -6.84,-1.162 c -1.162,-0.208 -2.026,-0.581 -2.592,-1.117 -0.567,-0.537 -0.85,-1.237 -0.85,-2.101 0,-0.835 0.313,-1.505 0.939,-2.012 0.656,-0.477 1.46,-0.715 2.414,-0.715 1.222,0 2.295,0.253 3.218,0.76 0.954,0.536 1.684,1.266 2.191,2.19 0.536,0.924 0.804,1.937 0.804,3.04 v 6.258 c 0,1.043 -0.417,1.907 -1.251,2.593 -0.805,0.715 -1.878,1.073 -3.219,1.073 -1.251,0 -2.369,-0.343 -3.352,-1.029 -0.954,-0.655 -1.654,-1.534 -2.101,-2.637 l -4.783,2.325 c 0.477,1.281 1.222,2.384 2.235,3.307 1.043,0.954 2.265,1.699 3.665,2.235 1.401,0.537 2.921,0.805 4.56,0.805 1.997,0 3.755,-0.372 5.275,-1.117 1.519,-0.716 2.697,-1.729 3.531,-3.04 0.864,-1.282 1.296,-2.787 1.296,-4.515 V 0 h -5.543 v 4.157 l 1.252,0.09 C -10.33,3.204 -11.075,2.324 -11.939,1.609 -12.803,0.924 -13.787,0.388 -14.889,0 c -1.103,-0.358 -2.325,-0.536 -3.666,-0.536 m -25.474,5.364 c 1.341,0 2.518,0.313 3.531,0.939 1.014,0.625 1.803,1.49 2.369,2.592 0.596,1.103 0.894,2.369 0.894,3.8 0,1.401 -0.298,2.652 -0.894,3.755 -0.566,1.132 -1.355,2.011 -2.369,2.637 -1.013,0.626 -2.19,0.939 -3.531,0.939 -1.311,0 -2.489,-0.328 -3.532,-0.983 -1.043,-0.626 -1.862,-1.491 -2.458,-2.593 -0.566,-1.073 -0.849,-2.325 -0.849,-3.755 0,-1.431 0.283,-2.697 0.849,-3.8 0.596,-1.102 1.415,-1.967 2.458,-2.592 1.043,-0.626 2.221,-0.939 3.532,-0.939 m -0.626,-5.364 c -2.354,0 -4.455,0.551 -6.303,1.654 -1.848,1.132 -3.308,2.667 -4.381,4.604 -1.072,1.937 -1.609,4.083 -1.609,6.437 0,2.384 0.537,4.53 1.609,6.437 1.073,1.907 2.533,3.427 4.381,4.56 1.878,1.132 3.964,1.698 6.258,1.698 1.848,0 3.487,-0.372 4.918,-1.117 1.46,-0.716 2.607,-1.729 3.442,-3.04 l -0.895,-1.207 v 14.349 h 5.856 V 0 h -5.543 v 4.694 l 0.626,-1.163 c -0.834,-1.311 -1.996,-2.324 -3.486,-3.039 -1.491,-0.686 -3.115,-1.028 -4.873,-1.028 m -29.864,0 c -1.699,0 -3.174,0.283 -4.426,0.849 -1.251,0.566 -2.22,1.371 -2.905,2.414 -0.686,1.073 -1.028,2.309 -1.028,3.71 0,1.341 0.298,2.533 0.894,3.576 0.596,1.073 1.52,1.967 2.771,2.682 1.252,0.715 2.831,1.222 4.739,1.52 l 7.956,1.297 v -4.471 l -6.839,-1.162 c -1.162,-0.208 -2.026,-0.581 -2.593,-1.117 -0.566,-0.537 -0.849,-1.237 -0.849,-2.101 0,-0.835 0.313,-1.505 0.939,-2.012 0.655,-0.477 1.46,-0.715 2.414,-0.715 1.222,0 2.294,0.253 3.218,0.76 0.954,0.536 1.684,1.266 2.191,2.19 0.536,0.924 0.804,1.937 0.804,3.04 v 6.258 c 0,1.043 -0.417,1.907 -1.251,2.593 -0.805,0.715 -1.878,1.073 -3.219,1.073 -1.252,0 -2.369,-0.343 -3.353,-1.029 -0.953,-0.655 -1.653,-1.534 -2.1,-2.637 l -4.784,2.325 c 0.477,1.281 1.222,2.384 2.236,3.307 1.043,0.954 2.264,1.699 3.665,2.235 1.401,0.537 2.921,0.805 4.56,0.805 1.996,0 3.755,-0.372 5.274,-1.117 1.52,-0.716 2.697,-1.729 3.532,-3.04 0.864,-1.282 1.296,-2.787 1.296,-4.515 V 0 h -5.543 v 4.157 l 1.252,0.09 C -66.294,3.204 -67.039,2.324 -67.903,1.609 -68.768,0.924 -69.751,0.388 -70.854,0 c -1.102,-0.358 -2.324,-0.536 -3.665,-0.536 m -30.358,18.193 h 6.392 c 1.103,0 2.056,0.209 2.861,0.626 0.804,0.447 1.43,1.058 1.877,1.833 0.447,0.775 0.671,1.669 0.671,2.682 0,1.043 -0.224,1.937 -0.671,2.682 -0.447,0.775 -1.073,1.371 -1.877,1.788 -0.805,0.447 -1.758,0.671 -2.861,0.671 h -6.392 z M -110.957,0 v 33.303 h 12.383 c 2.264,0 4.261,-0.418 5.99,-1.252 1.758,-0.805 3.129,-1.997 4.112,-3.576 0.984,-1.55 1.475,-3.442 1.475,-5.677 0,-2.295 -0.551,-4.247 -1.654,-5.856 -1.073,-1.609 -2.533,-2.801 -4.38,-3.576 L -85.388,0 h -6.884 l -8.18,14.617 3.934,-2.324 h -8.359 V 0 Z"
             style="fill:#4a90e2;fill-opacity:1;fill-rule:nonzero;stroke:none"
             id="path264" />
        </g>
      </g>
    </g>
    <path
       style="fill:#ffffff;stroke-width:0.226308"
       d="m 283.90382,825.76339 c -2.00226,-0.16132 -4.29956,-0.59539 -5.73088,-1.08283 -7.21797,-2.45812 -12.41578,-8.23646 -14.36346,-15.96769 -0.40695,-1.61538 -0.48262,-2.55824 -0.47227,-5.88401 0.0109,-3.51465 0.0778,-4.20541 0.59423,-6.13723 1.38602,-5.18502 4.25725,-9.48444 8.23795,-12.33561 1.93954,-1.38919 5.27794,-2.921 7.67447,-3.52138 2.8794,-0.72136 7.943,-0.72485 10.80425,-0.007 3.68193,0.92316 6.85355,2.70206 9.39986,5.27217 2.06268,2.08197 3.99296,5.1921 3.50358,5.64507 -0.23818,0.22046 -6.68365,3.19634 -6.7428,3.11317 -0.0245,-0.0345 -0.38608,-0.67372 -0.80345,-1.42054 -1.48893,-2.66414 -4.36154,-4.87007 -7.35841,-5.65065 -1.69861,-0.44243 -5.21602,-0.44173 -7.09597,10e-4 -2.98437,0.70348 -6.01134,2.79688 -7.75332,5.36205 -2.02092,2.97594 -2.79964,6.15289 -2.61756,10.67895 0.0655,1.62824 0.28341,3.57146 0.48424,4.31828 1.30841,4.86544 4.84554,8.57479 9.52384,9.98756 2.05405,0.62029 6.2967,0.55769 8.26025,-0.12187 2.77906,-0.96181 5.24799,-3.04724 6.61558,-5.58799 l 0.73945,-1.37378 3.28147,1.53844 c 1.80481,0.84614 3.38331,1.57975 3.50778,1.63024 0.44648,0.18112 -1.50132,3.52315 -2.99132,5.13249 -2.34686,2.53482 -5.15169,4.32604 -8.43726,5.38819 -2.27554,0.73563 -6.04023,1.20188 -8.26025,1.02301 z"
       id="path1764"
       transform="matrix(0.75000002,0,0,-0.75000002,0,1080)" />
    <path
       style="fill:#ffffff;stroke-width:0.226308"
       d="m 323.16832,825.67068 c -2.17562,-0.23076 -4.75309,-1.05258 -6.71381,-2.14067 -1.85927,-1.0318 -5.05258,-4.16447 -6.14517,-6.02847 -2.17072,-3.70336 -2.77232,-9.12476 -1.4987,-13.50585 1.22773,-4.22325 4.43938,-7.96545 8.58681,-10.00532 2.75156,-1.35332 4.25425,-1.67689 7.80764,-1.68117 2.57727,-0.003 3.32066,0.0793 4.75248,0.52657 4.80585,1.50137 8.31765,4.4327 10.48134,8.74886 2.40558,4.79872 2.22113,11.10647 -0.45993,15.72796 -1.16938,2.01573 -4.30936,5.14068 -6.24433,6.21446 -1.98377,1.10086 -4.27317,1.87037 -6.07941,2.0434 -0.78747,0.0754 -1.73728,0.16935 -2.11069,0.2087 -0.3734,0.0394 -1.44271,-0.009 -2.37623,-0.10847 z m 5.75055,-7.63644 c 2.78282,-1.30224 4.62701,-3.91836 5.14433,-7.29762 0.68159,-4.45229 -1.24986,-8.701 -4.84066,-10.64826 -1.37537,-0.74585 -1.48772,-0.76728 -4.02107,-0.76728 -2.4877,0 -2.67476,0.0337 -4.11537,0.74242 -2.74585,1.35075 -4.49651,3.9142 -4.97269,7.28139 -0.63529,4.49227 1.30197,8.76503 4.7711,10.52297 1.64461,0.83338 2.60059,1.02286 4.70747,0.93303 1.48869,-0.0635 2.1498,-0.21583 3.32689,-0.76665 z"
       id="path1766"
       transform="matrix(0.75000002,0,0,-0.75000002,0,1080)" />
    <path
       style="fill:#ffffff;stroke-width:0.226308"
       d="m 348.28854,808.93918 v -16.06789 h 3.50778 3.50778 l 0.008,2.09335 0.008,2.09335 0.45626,-0.56577 c 2.42462,-3.00659 5.14086,-4.305 8.98819,-4.29651 4.51239,0.01 8.58836,2.36809 10.55194,6.10479 1.42014,2.70254 1.47952,3.32971 1.48392,15.67404 l 0.004,11.03253 h -3.84725 -3.84724 l -10e-4,-10.24045 c -7.6e-4,-6.27154 -0.0908,-10.56299 -0.23239,-11.07266 -0.4411,-1.58813 -1.57274,-2.94492 -3.12416,-3.74573 -1.26109,-0.65095 -1.64796,-0.74031 -3.20512,-0.74031 -1.55716,0 -1.94404,0.0894 -3.20512,0.74031 -1.55142,0.80081 -2.68306,2.1576 -3.12416,3.74573 -0.14155,0.50967 -0.23163,4.80112 -0.2324,11.07266 l -10e-4,10.24045 h -3.84724 -3.84725 z"
       id="path1768"
       transform="matrix(0.75000002,0,0,-0.75000002,0,1080)" />
    <path
       style="fill:#ffffff;stroke-width:0.226308"
       d="m 395.02122,825.10014 c -3.05013,-0.68307 -5.63448,-2.56553 -6.78553,-4.94262 -1.1673,-2.41062 -1.24842,-3.20152 -1.24842,-12.17112 v -8.32586 h -2.82885 -2.82886 v -3.36297 -3.36296 l 1.24605,-0.1286 c 2.9178,-0.30115 4.15664,-1.8292 4.3589,-5.37648 l 0.11554,-2.02642 h 3.7027 3.7027 v 3.73409 3.73409 h 3.73408 3.73409 v 3.39462 3.39463 h -3.7473 -3.74729 l 0.0698,7.97737 c 0.0605,6.91148 0.11983,8.06808 0.44433,8.65629 0.96581,1.75073 2.4499,2.44241 5.22659,2.43592 l 1.9802,-0.005 v 3.12743 c 0,1.75491 -0.0954,3.18639 -0.21735,3.26177 -0.55009,0.33997 -5.37365,0.32982 -6.91136,-0.0145 z"
       id="path1770"
       transform="matrix(0.75000002,0,0,-0.75000002,0,1080)" />
  </g>
</svg>
