<?xml version="1.0" encoding="UTF-8" standalone="no"?>
<svg
   width="25.485653"
   height="16.914206"
   viewBox="0 0 25.485653 16.914206"
   version="1.1"
   id="svg12"
   xmlns="http://www.w3.org/2000/svg"
   xmlns:svg="http://www.w3.org/2000/svg">
  <defs
     id="defs16" />
  <g
     transform="matrix(1.11111,0,0,1.11111,-9.4794239,-13.765208)"
     id="g10">
    <path
       d="M 8.53149,27.6115 H 31.4686 V 12.3887 H 8.53149 Z m 1.08,-14.1428 H 30.3886 V 26.5315 H 9.61149 Z"
       fill="#000000"
       id="path2" />
    <path
       d="m 20.0001,16.2458 c -0.7425,0 -1.4683,0.2202 -2.0857,0.6328 -0.6174,0.4125 -1.0986,0.9988 -1.3828,1.6848 -0.2841,0.686 -0.3585,1.4409 -0.2136,2.1691 0.1448,0.7283 0.5024,1.3973 1.0275,1.9223 0.525,0.5251 1.194,0.8826 1.9222,1.0275 0.7283,0.1448 1.4831,0.0705 2.1691,-0.2137 0.686,-0.2841 1.2724,-0.7653 1.6849,-1.3827 0.4125,-0.6174 0.6327,-1.3432 0.6327,-2.0858 0,-0.9957 -0.3955,-1.9506 -1.0996,-2.6547 -0.7041,-0.704 -1.659,-1.0996 -2.6547,-1.0996 z m 0,6.4286 c -0.5289,0 -1.0459,-0.1568 -1.4857,-0.4507 -0.4398,-0.2938 -0.7826,-0.7115 -0.985,-1.2002 -0.2024,-0.4886 -0.2554,-1.0263 -0.1522,-1.5451 0.1032,-0.5188 0.3579,-0.9953 0.7319,-1.3693 0.374,-0.374 0.8505,-0.6287 1.3693,-0.7319 0.5188,-0.1032 1.0565,-0.0502 1.5451,0.1522 0.4887,0.2024 0.9064,0.5452 1.2002,0.985 0.2939,0.4398 0.4507,0.9568 0.4507,1.4857 -0.0034,0.7083 -0.2862,1.3865 -0.787,1.8873 -0.5008,0.5008 -1.179,0.7836 -1.8873,0.787 z"
       fill="#000000"
       id="path4" />
    <path
       d="m 25.2458,16.0532 h 2.5715 v 7.8943 h -2.5715 v 1.1057 h 3.6515 V 14.9475 h -3.6515 z"
       fill="#000000"
       id="path6" />
    <path
       d="m 11.1029,25.0532 h 3.6514 v -1.1057 h -2.5714 v -7.8943 h 2.5714 v -1.1057 h -3.6514 z"
       fill="#000000"
       id="path8" />
  </g>
</svg>
